<svg version="1.1" id="Layer_1" xmlns="http://www.w3.org/2000/svg" xmlns:xlink="http://www.w3.org/1999/xlink" x="0px" y="0px"
	 width="100%" viewBox="0 0 1024 576" enable-background="new 0 0 1024 576" xml:space="preserve">
<path fill="#000000" opacity="1.000000" stroke="none" 
	d="
M236.428467,577.000000 
	C237.543411,568.698914 239.374390,560.438965 239.946579,551.701782 
	C237.228882,551.229797 234.776535,550.953552 232.402008,550.363770 
	C224.923294,548.506348 221.092957,543.851440 220.670761,536.222412 
	C220.587204,534.712769 220.535141,533.244202 219.758087,531.880920 
	C211.058990,516.620056 208.286072,499.640869 206.110672,482.631042 
	C204.167282,467.435486 200.326859,452.624725 198.141251,437.471924 
	C192.326080,397.155731 185.842010,356.936035 179.642487,316.675140 
	C178.934265,312.075745 177.963852,307.473145 177.782288,302.845856 
	C177.463150,294.712738 182.495148,288.963196 190.238403,287.900421 
	C196.769699,287.003967 203.769943,291.772797 205.164261,299.178192 
	C207.868561,313.540955 209.950912,328.020966 212.279480,342.454254 
	C216.804932,370.504730 221.345245,398.552826 225.830505,426.609711 
	C227.326599,435.968292 228.967941,445.319061 229.982468,454.733765 
	C230.634918,460.788422 228.950485,466.406067 223.197128,469.786133 
	C221.071213,471.035126 219.979904,472.494568 220.447556,475.026794 
	C222.863754,488.109924 225.057175,501.234009 229.111847,513.961304 
	C230.449692,518.160706 232.035965,520.064453 237.250183,519.104858 
	C248.414612,517.050171 259.834930,517.950378 271.158203,517.872437 
	C272.274323,517.864746 273.486969,518.176331 275.028229,516.831360 
	C270.273438,512.634399 266.493896,507.686401 263.692108,502.037476 
	C263.023010,500.688477 261.722198,500.243256 260.308777,500.401764 
	C256.329620,500.847961 255.077286,498.169525 254.262589,495.116150 
	C250.952011,482.708130 249.134430,470.039001 247.692139,457.301147 
	C245.832733,440.879242 245.510254,424.451508 246.667007,407.951080 
	C249.274490,370.757202 254.801880,334.165314 269.580627,299.608490 
	C280.535187,273.993652 296.990845,252.495667 319.536255,235.842712 
	C324.022949,232.528671 325.422424,226.744995 329.440094,222.931717 
	C331.967285,220.533127 333.768402,217.724121 337.953613,217.653503 
	C341.090881,217.600601 341.951569,214.362335 342.480591,211.800797 
	C345.118835,199.026031 343.898438,186.368088 341.229492,173.724808 
	C339.403442,165.074615 338.321472,156.300278 339.749481,147.459671 
	C341.305389,137.827042 343.993469,128.800186 354.378815,124.534622 
	C352.692902,121.767433 347.781921,120.215797 351.144440,116.583794 
	C354.882050,112.546600 358.375305,115.897614 362.033325,118.446152 
	C368.579559,110.427780 377.375793,107.400154 387.289612,107.962746 
	C394.593140,108.377197 401.774628,109.935364 408.748993,112.356499 
	C418.997650,115.914299 428.804840,120.495781 438.682739,124.921272 
	C447.075012,128.681183 455.402649,132.486649 465.073730,130.168411 
	C468.193115,129.420670 468.128448,131.827972 467.658142,133.987228 
	C466.711395,138.333832 464.032227,141.714478 461.103729,144.910507 
	C463.051971,146.809097 465.168762,144.467499 467.349396,145.974457 
	C466.765991,151.597595 462.267212,153.761475 458.065765,156.335953 
	C455.315277,158.021301 450.644165,156.600632 449.618134,160.353989 
	C448.834106,163.222031 449.918518,166.590912 450.119995,169.740326 
	C450.532013,176.181213 449.893250,182.559799 446.458679,188.086929 
	C443.167938,193.382675 443.066345,198.645477 444.672821,204.324722 
	C445.804565,208.325867 446.827881,212.362213 447.752625,216.416367 
	C449.255219,223.003723 446.501678,227.088730 440.013947,226.359894 
	C434.061432,225.691177 431.287994,227.563934 429.514832,233.113174 
	C427.956146,237.991211 425.506958,242.595795 423.795837,247.480911 
	C420.967041,255.556778 415.295258,258.293640 407.241089,255.281082 
	C402.899963,253.657349 398.740814,251.439209 394.714569,249.116547 
	C391.659698,247.354279 389.580872,247.941681 387.299835,250.379593 
	C381.352814,256.735504 381.155823,257.432526 386.096130,264.084137 
	C387.682281,266.219696 388.345306,268.415802 388.309204,271.029083 
	C388.249420,275.359283 388.319519,279.695068 388.476715,284.023376 
	C388.638947,288.491394 388.712952,288.488708 384.400574,289.749207 
	C385.516663,296.783905 389.164062,302.823334 392.429535,308.918091 
	C400.294647,323.597748 408.502258,338.093781 416.551575,352.675018 
	C417.889618,355.098877 419.126587,357.277405 418.865845,360.517639 
	C418.447906,365.710754 423.898407,368.814484 428.433563,366.533356 
	C445.087036,358.156738 462.458923,351.191528 478.135773,340.886292 
	C482.095123,338.283630 484.758148,335.381348 485.932892,330.575287 
	C488.780121,318.926819 494.147095,308.915619 505.081451,302.506927 
	C508.723572,300.372253 511.535034,296.779633 514.621887,293.747284 
	C519.985962,288.477966 522.815247,288.810364 526.619324,295.559052 
	C532.671082,286.405792 537.062744,276.503967 542.399536,267.137665 
	C545.242188,262.148682 547.889282,261.521606 552.406677,264.712341 
	C555.643311,266.998474 555.747009,269.635956 553.992554,272.940765 
	C550.336975,279.826721 546.867310,286.811432 543.391479,293.618011 
	C550.402771,300.199951 550.644043,301.975220 545.277283,309.438538 
	C544.126404,311.039032 543.974915,312.183655 544.847473,313.913269 
	C546.621094,317.428925 545.979431,320.691376 543.206055,323.517944 
	C542.740967,323.991974 541.903687,324.582825 541.964417,325.018433 
	C542.883850,331.614136 537.521545,335.979065 536.147949,341.719238 
	C535.538330,344.266937 534.565186,346.535156 532.393311,347.976471 
	C523.239868,354.050842 514.277527,360.608002 502.670593,361.160339 
	C501.447754,361.218536 500.410645,361.671509 499.487610,362.434540 
	C489.363800,370.803314 479.241608,379.174072 468.341034,388.187500 
	C476.158997,388.319214 482.629517,385.688568 489.301880,384.443909 
	C496.167542,383.163147 502.893433,380.748962 509.796539,380.134338 
	C523.298950,378.932129 536.473755,380.848602 547.533997,389.448517 
	C553.614807,394.176666 560.320312,398.248779 564.657654,405.259277 
	C565.787720,407.085815 571.391174,406.910400 574.768250,406.434753 
	C584.242065,405.100433 593.725647,404.151825 603.273499,403.641174 
	C606.180420,403.485718 609.050903,402.715698 611.948181,402.297119 
	C621.364807,400.936615 625.716980,403.292450 628.312378,412.554199 
	C629.592590,417.122620 631.743591,418.182770 635.994629,417.922333 
	C641.307190,417.596832 646.655090,417.810364 651.987244,417.854065 
	C655.960815,417.886627 659.954041,418.508331 661.722351,413.305115 
	C662.436584,411.203827 665.069153,410.863403 667.326294,410.704163 
	C685.258972,409.439117 703.172974,407.744354 721.126526,407.013428 
	C729.582275,406.669189 732.516785,402.818481 731.404114,394.391388 
	C729.154785,377.356598 724.989990,360.724182 719.820618,344.349823 
	C717.587708,337.276978 715.153809,330.267578 712.282593,323.298706 
	C709.733643,342.713623 700.861328,360.619537 700.272949,380.272888 
	C700.145447,384.531158 697.104248,386.035614 693.478760,386.043732 
	C685.569885,386.061432 678.661682,382.634735 671.888245,379.031158 
	C669.690613,377.861969 669.617615,375.570038 669.609436,373.321808 
	C669.548645,356.652679 671.345947,340.075867 672.080505,323.445557 
	C672.704651,309.314270 673.828613,295.205353 674.701782,281.084686 
	C676.304199,255.170837 677.908447,229.257080 679.461182,203.340256 
	C679.978699,194.702896 680.469177,186.059921 680.718567,177.412201 
	C680.836670,173.314774 682.008240,169.964005 685.206482,167.311417 
	C689.049927,164.123688 692.823242,160.850021 696.583618,157.563995 
	C699.285950,155.202515 702.403076,154.547623 705.886658,154.899170 
	C711.422058,155.457748 713.595337,157.329453 713.206177,162.816422 
	C712.004639,179.759201 715.839355,196.269119 717.010071,212.998032 
	C717.601685,221.452347 717.440735,229.996368 717.055786,238.474197 
	C716.278503,255.593765 715.150818,272.697998 714.094666,289.804047 
	C713.678955,296.535492 717.376831,301.973236 719.841431,307.675995 
	C733.037048,338.209198 742.918884,369.736267 749.118164,402.408142 
	C749.548340,404.675171 750.010681,406.541504 752.180908,407.713989 
	C754.013184,408.703827 755.465210,410.380859 755.789917,412.323975 
	C756.686096,417.685272 760.213684,417.855591 764.586792,417.835449 
	C790.415344,417.716736 816.244995,417.782532 842.073975,417.875824 
	C846.158081,417.890564 851.132874,417.085205 853.205994,421.637726 
	C855.827271,427.393738 855.712708,433.712097 853.220276,439.580139 
	C851.786438,442.955902 848.124573,442.951782 844.954590,443.120575 
	C833.101807,443.751617 833.094116,443.727875 833.090332,455.585602 
	C833.077515,495.745148 833.069763,535.904724 833.030029,576.532104 
	C831.285645,577.000000 829.571289,577.000000 827.356201,576.535767 
	C826.815857,540.619934 826.776855,505.168213 826.734375,469.716522 
	C826.732422,468.052368 826.818604,466.376526 826.654907,464.726807 
	C826.373718,461.892334 825.207153,461.040955 822.060974,461.797974 
	C817.803467,462.822479 818.273926,465.755402 818.273926,468.670227 
	C818.274292,502.624542 818.309082,536.578857 818.310242,570.533142 
	C818.310303,572.688782 818.108093,574.844360 818.000000,577.000000 
	C816.285645,577.000000 814.571289,577.000000 812.560791,576.644470 
	C813.113159,572.630615 812.017212,569.014221 812.012207,565.365906 
	C811.963684,529.922302 811.845764,494.478607 811.635193,459.035614 
	C811.605835,454.096924 813.795105,447.813446 810.662231,444.554016 
	C807.275146,441.030090 800.846924,443.961884 795.796326,443.342041 
	C790.791443,442.727753 789.212708,444.688385 789.237122,449.776733 
	C789.431824,490.378418 789.352722,530.981384 789.397888,571.583923 
	C789.399841,573.389465 789.790466,575.194641 790.000000,577.000000 
	C788.611084,577.000000 787.222229,577.000000 785.321899,576.539185 
	C784.760498,556.121826 784.661316,536.165161 784.708923,516.208862 
	C784.716858,512.872864 784.114929,510.353424 780.758972,509.659119 
	C777.275024,512.575867 777.260681,516.303589 777.284729,520.203979 
	C777.387451,536.834595 777.317810,553.466187 777.343689,570.097412 
	C777.347290,572.410217 777.070312,574.767700 778.000000,577.000000 
	C776.285645,577.000000 774.571289,577.000000 772.568359,576.611572 
	C772.985352,562.905518 772.323608,549.597351 772.154907,536.280762 
	C771.793823,507.786682 771.836426,479.287476 771.711792,450.790375 
	C771.682556,444.104523 771.679199,444.113068 765.138794,444.114532 
	C663.479797,444.137604 561.820801,444.158325 460.161835,444.179352 
	C458.162018,444.179749 456.154541,444.287781 454.164215,444.149994 
	C451.275665,443.950043 450.276886,445.334564 450.423187,448.027832 
	C450.513397,449.688843 450.530945,451.368866 450.390747,453.024231 
	C450.103668,456.413879 451.611664,457.678650 454.963562,457.999207 
	C462.411682,458.711487 469.804596,459.995758 477.251312,460.729126 
	C496.988861,462.673065 508.766632,473.438965 513.323425,492.568298 
	C518.179321,512.952820 523.381775,533.257874 527.971802,553.701111 
	C529.710571,561.445068 532.766357,568.929260 533.000000,577.000000 
	C525.312439,577.000000 517.624817,577.000000 509.390381,576.595947 
	C506.759460,566.437805 504.761169,556.664429 502.572449,546.933777 
	C498.669342,529.581421 495.524475,512.056580 490.641937,494.925446 
	C487.618652,484.317688 481.338348,477.058350 470.334412,474.409241 
	C466.294495,473.436676 462.278839,472.350159 458.213898,471.497803 
	C450.206146,469.818787 450.012482,469.880615 450.420166,477.963531 
	C451.460907,498.598999 451.278748,519.252808 450.776825,539.877502 
	C450.462463,552.794617 452.792969,564.984192 457.000000,577.000000 
	C452.975464,577.000000 448.950897,577.000000 444.456482,576.531372 
	C443.931091,538.076843 443.875793,500.091034 443.819519,462.105225 
	C443.817780,460.939117 443.776855,459.772339 443.805023,458.607086 
	C443.861176,456.283295 442.683655,455.485260 440.439148,455.298126 
	C436.416229,454.962677 435.224731,456.732178 435.311218,460.561920 
	C435.638489,475.047546 435.848389,489.537659 435.911652,504.026947 
	C436.017853,528.351013 435.978271,552.675598 436.000000,577.000000 
	C433.958344,577.000000 431.916656,577.000000 429.349915,576.537964 
	C428.824799,565.781494 428.824799,555.487061 428.824799,545.192566 
	C428.362152,545.051270 427.899536,544.910034 427.436890,544.768738 
	C422.751923,548.716614 417.262329,550.315796 411.384338,550.745117 
	C407.951508,550.995789 407.072754,552.532898 407.688934,556.017395 
	C408.921021,562.984741 411.273987,569.794312 411.000000,577.000000 
	C409.611115,577.000000 408.222198,577.000000 406.320038,576.595032 
	C405.219147,572.750793 404.455078,569.330322 404.085754,565.867798 
	C403.546295,560.810059 400.871246,560.451965 396.669250,562.098694 
	C397.467010,567.198975 398.233521,572.099487 399.000000,577.000000 
	C397.285645,577.000000 395.571289,577.000000 393.420105,576.570679 
	C391.826172,569.094482 390.665985,562.048096 389.513489,555.000549 
	C389.067230,552.271729 387.597626,551.079529 384.718353,551.153076 
	C378.399078,551.314575 372.073547,551.241760 365.750549,551.243530 
	C331.805969,551.253357 297.861206,551.309631 263.917053,551.189758 
	C260.040161,551.176025 258.322296,552.091064 257.964783,556.299011 
	C257.375641,563.233276 256.027954,570.103027 255.000000,577.000000 
	C253.285645,577.000000 251.571289,577.000000 249.425385,576.592041 
	C249.558029,572.753296 250.218750,569.334534 250.648346,565.887024 
	C250.886475,563.976074 251.339905,561.748230 248.322464,561.338867 
	C245.637939,560.974670 244.406143,562.007202 244.068100,564.757996 
	C243.563843,568.861389 242.706894,572.921509 242.000000,577.000000 
	C240.285645,577.000000 238.571289,577.000000 236.428467,577.000000 
M524.267639,347.092072 
	C515.413330,347.741577 506.431458,348.971558 499.542816,340.780029 
	C505.491150,336.011383 509.813263,329.360901 508.924957,320.750061 
	C508.385101,315.516968 510.428864,312.239502 514.302124,309.406677 
	C516.467957,307.822632 518.252380,305.809662 519.492798,303.409973 
	C520.703003,301.068695 521.418152,298.639526 520.042358,295.629608 
	C515.351868,299.845032 511.963928,304.834351 506.906097,307.758057 
	C499.806458,311.862122 495.850983,318.089600 493.459167,325.614258 
	C492.552765,328.465729 491.414551,331.267029 490.789673,334.178650 
	C489.972473,337.986176 488.026978,340.710205 484.820343,342.930328 
	C475.216309,349.579773 465.090820,355.270966 454.652924,360.496216 
	C442.317871,366.671173 429.203247,371.322174 417.753662,379.246674 
	C417.001801,379.767029 416.110870,380.533478 414.439209,379.144592 
	C420.042145,373.838257 417.924255,369.127045 412.647034,364.421387 
	C405.776581,370.593140 398.360718,375.890350 393.903992,383.979797 
	C395.320831,385.605865 396.871613,385.532593 398.342468,385.632507 
	C412.943054,386.624451 427.539490,387.689331 442.148224,388.543610 
	C449.435974,388.969788 456.457275,389.179565 462.834656,383.799103 
	C471.466766,376.516418 480.799103,370.058533 489.687622,363.049652 
	C493.513275,360.032959 496.303589,357.432770 494.116516,352.306091 
	C494.078308,352.216492 494.541382,351.913055 495.146057,351.375702 
	C499.243622,355.592255 504.328003,356.006866 509.741272,354.334961 
	C515.185791,352.653351 520.136597,349.921295 525.618835,346.727966 
	C528.031921,345.289825 531.151306,343.897064 530.457092,340.615906 
	C529.785339,337.440826 526.114258,338.352936 523.787415,337.413330 
	C523.639587,337.353668 523.460571,337.348785 523.297180,337.353790 
	C521.272339,337.416229 518.496704,336.266632 517.885437,339.219421 
	C517.367798,341.720306 519.995056,342.110779 521.730774,342.956329 
	C523.425232,343.781830 526.571472,343.523712 524.267639,347.092072 
M342.503723,258.972870 
	C336.858887,252.324097 332.356628,244.727142 326.152740,238.257812 
	C315.763458,246.357132 306.683716,254.929489 298.807495,264.643890 
	C279.829376,288.051147 269.065796,315.345093 262.338074,344.350403 
	C257.251953,366.278412 254.970398,388.589722 253.817474,411.081116 
	C252.496536,436.850067 254.508499,462.268280 259.441803,487.540558 
	C260.363190,492.260559 262.228058,492.830353 266.621796,491.350067 
	C283.953796,485.510712 299.800262,476.656189 315.625488,467.770294 
	C330.662384,459.327026 346.071869,451.969025 363.225861,448.938416 
	C364.793030,448.661560 366.783722,449.061340 367.432495,446.985138 
	C368.076935,444.922882 366.863953,443.414856 365.423798,442.221008 
	C362.917084,440.142914 361.527405,437.847473 362.506470,434.400909 
	C363.201813,431.953369 361.869232,430.529572 359.367554,430.492645 
	C356.880402,430.455963 354.316071,430.276184 351.913849,430.775848 
	C340.835297,433.080414 335.305573,430.527466 329.918884,420.465668 
	C324.856720,411.010162 321.567780,400.870880 318.439484,390.687164 
	C317.453400,387.477112 316.001831,385.782715 312.495361,386.266083 
	C309.916260,386.621582 307.884735,385.738190 306.935577,383.126190 
	C306.196960,381.093506 305.546051,379.029083 304.816071,376.993134 
	C298.526978,359.452362 296.625519,340.587891 288.703247,323.534943 
	C288.384827,322.849518 288.367432,321.283295 288.413116,321.275208 
	C292.230042,320.599121 289.838135,318.026337 289.926178,316.295471 
	C290.046844,313.922424 289.215637,311.464996 291.033600,307.589630 
	C297.830353,327.443909 301.349731,346.825806 307.772308,365.300934 
	C308.774475,365.127960 309.289795,365.134705 309.723877,364.950256 
	C325.409912,358.284302 341.586487,353.208618 358.359192,350.141876 
	C361.567566,349.555237 361.914429,348.060822 361.190948,345.239441 
	C358.380249,334.278412 355.813171,323.255066 353.028107,312.287262 
	C350.535187,302.469971 349.193024,292.306427 344.384125,283.170074 
	C337.835602,270.728729 328.549988,265.923401 314.877991,267.929596 
	C313.792206,268.088928 312.606567,268.647308 311.708527,267.324493 
	C312.207886,265.210175 314.209412,265.350433 315.654846,264.940826 
	C328.365417,261.338806 340.111542,266.478302 347.427246,278.652924 
	C351.341125,285.166412 353.421173,292.369720 355.319275,299.612183 
	C360.417664,319.065857 364.445404,338.799805 370.956543,357.989838 
	C372.335938,331.037384 375.305603,304.131744 372.378662,276.282837 
	C370.752441,279.386566 369.515961,281.873871 368.164948,284.297363 
	C365.685913,288.744415 364.114166,288.914825 361.014984,284.705627 
	C354.891449,276.388885 348.939758,267.945618 342.503723,258.972870 
M425.899750,517.832031 
	C429.250031,517.195190 428.633392,514.521423 428.639709,512.290039 
	C428.674622,499.968201 428.648224,487.646149 428.635406,475.324188 
	C428.626007,466.266449 428.571808,466.355957 419.727478,465.313751 
	C404.376953,463.504883 388.947479,462.093628 373.736481,459.449402 
	C358.425354,456.787720 344.538696,458.714050 331.186951,466.960968 
	C315.759979,476.489655 299.860413,485.252106 284.191620,494.391113 
	C280.647308,496.458344 276.533783,497.528076 272.991028,500.562744 
	C277.754333,508.537628 284.806793,512.743652 293.386139,514.551086 
	C302.677032,516.508301 312.111755,517.669678 321.608490,517.710876 
	C356.075958,517.860291 390.544067,517.856567 425.899750,517.832031 
M426.336853,153.327438 
	C422.557098,152.208618 419.022339,150.229385 415.149628,149.861237 
	C414.098877,151.084366 414.234650,152.319107 414.397675,153.426788 
	C415.684601,162.171127 412.104309,168.743759 405.118011,173.539566 
	C401.213776,176.219650 399.541626,179.976822 398.436218,184.251358 
	C397.769745,186.828506 397.006012,189.380722 396.354218,191.961365 
	C395.990173,193.402573 395.301697,194.269211 393.696991,194.454147 
	C389.521912,194.935349 385.836548,191.928452 385.782318,187.634247 
	C385.733246,183.753494 385.650146,179.953156 383.055054,176.734451 
	C379.612122,172.464142 374.359650,172.260986 371.090698,176.284531 
	C364.237122,184.720154 367.162994,198.211456 376.848145,202.758820 
	C377.668945,203.144196 378.247864,203.611725 378.217163,204.587082 
	C373.674438,207.478683 370.957886,206.579041 364.311401,199.830292 
	C361.304169,203.784134 358.679535,208.443375 353.828522,210.093170 
	C348.651337,211.853882 347.305908,216.305634 344.930756,220.212448 
	C341.115479,226.487930 347.955231,227.902298 349.955872,231.509613 
	C350.430573,232.365509 351.209534,233.060974 351.886810,233.794876 
	C359.400665,241.936874 366.922119,250.071899 374.419373,258.184875 
	C379.123444,254.255280 379.980408,250.167557 378.085571,244.656937 
	C375.770325,237.923782 374.221008,230.856247 374.773804,223.578476 
	C374.900269,221.913605 374.626099,220.002518 376.755127,218.714951 
	C378.607056,222.429092 378.419800,226.583954 380.903961,229.624664 
	C388.674713,239.136398 398.672699,245.636826 409.822479,250.390121 
	C412.610992,251.578903 415.938629,251.534622 417.559753,247.995621 
	C419.622650,243.492081 421.480621,238.894684 423.518463,234.123505 
	C418.981018,232.008453 413.953186,230.836166 412.590149,223.989395 
	C416.550446,226.096420 419.266418,227.625595 422.059418,228.997894 
	C423.933960,229.918930 425.871185,229.854752 426.502533,227.503540 
	C428.130096,221.442520 431.601379,219.939941 437.653076,221.495728 
	C442.082611,222.634460 443.235657,220.878296 442.238098,216.117538 
	C441.112122,210.743881 439.938263,205.375153 438.575256,200.058090 
	C437.698425,196.637482 437.755890,193.198563 439.568451,190.368881 
	C445.419861,181.233871 444.043915,171.180862 443.900757,161.234802 
	C443.862762,158.594620 442.710144,157.511368 440.094421,157.026962 
	C435.689880,156.211243 431.250824,155.369278 426.336853,153.327438 
M524.856140,401.574829 
	C520.168213,398.697662 514.210327,398.440063 509.083466,394.505737 
	C512.089172,393.282471 514.157959,393.838257 516.251282,394.111389 
	C525.071167,395.262207 531.898987,400.241699 538.660461,405.471588 
	C541.302734,407.515350 544.038147,409.831543 549.335571,408.723602 
	C543.462402,403.892700 538.916748,399.192566 533.257080,395.762665 
	C527.784546,392.446167 520.668701,392.479828 515.472900,388.006989 
	C516.855347,386.514252 517.911560,386.523560 518.866028,386.686951 
	C526.913025,388.064728 534.932129,389.308777 541.271973,395.384521 
	C544.735596,398.703918 548.817139,401.387512 552.681763,404.275269 
	C554.235596,405.436340 555.948120,406.435791 558.379395,404.910217 
	C548.830872,396.590607 539.845093,388.789703 526.973389,386.164215 
	C518.141479,384.362732 509.952850,384.180878 501.510956,386.753052 
	C500.398010,387.092194 499.234955,387.267029 498.122559,387.607697 
	C477.802094,393.831573 457.011749,395.346436 435.896545,394.078888 
	C414.311859,392.783203 392.781952,390.145447 371.087158,391.274475 
	C369.419556,391.361237 367.501862,391.911804 365.988312,390.437073 
	C366.711151,388.687408 369.181213,388.253723 368.251709,385.725708 
	C366.646057,381.358673 365.406555,376.853760 364.097870,372.382019 
	C363.342102,369.799591 361.835632,368.803192 359.239838,369.711060 
	C349.121735,373.249878 339.489838,377.696564 331.134857,384.584686 
	C329.237366,386.149017 328.513641,387.737305 329.568909,390.192444 
	C333.186005,398.607697 336.784058,407.016937 341.308197,415.010864 
	C344.752808,421.097321 349.540863,423.786072 356.755554,423.831726 
	C388.643799,424.033447 419.539154,417.214478 450.585846,411.320129 
	C457.415619,410.023468 464.386230,407.369873 471.261932,409.225952 
	C481.000702,411.854919 490.326599,411.451355 498.777588,406.359406 
	C506.905579,401.462067 514.319946,403.549622 522.043274,406.449982 
	C525.157776,407.619568 528.204407,408.972717 531.333740,410.098419 
	C532.482544,410.511719 533.844849,411.152863 535.360901,409.337982 
	C532.025574,406.849426 528.751404,404.406494 524.856140,401.574829 
M461.499329,436.660217 
	C548.448059,436.632050 635.398254,436.872833 722.344604,436.406189 
	C747.313965,436.272217 772.285889,436.675568 797.258362,436.177734 
	C812.223633,435.879395 827.205750,436.463989 842.180786,436.561523 
	C844.164246,436.574402 846.650146,437.426788 847.574341,434.384155 
	C849.503052,428.033936 847.331177,424.996399 840.790894,425.007324 
	C794.646179,425.084320 748.501465,425.193176 702.356750,425.222961 
	C607.901306,425.283905 513.445862,425.313812 418.990448,425.295441 
	C414.962372,425.294647 412.265289,425.840088 412.273132,430.880920 
	C412.280823,435.840210 414.460663,437.067841 419.021393,436.973358 
	C432.843536,436.687103 446.672729,436.742828 461.499329,436.660217 
M228.597031,532.440613 
	C227.427872,540.659363 229.826248,543.654053 238.074478,543.657227 
	C294.069672,543.678650 350.064911,543.648254 406.060028,543.560791 
	C409.031372,543.556152 412.075317,543.174255 414.953461,542.446106 
	C418.421387,541.568665 420.794312,539.444458 420.838654,535.394897 
	C420.880890,531.538330 419.088837,529.046570 415.624390,527.723450 
	C412.641266,526.584167 409.514221,526.287842 406.306030,526.285034 
	C365.809387,526.249146 325.312592,526.205872 284.816254,526.052490 
	C271.490417,526.002014 258.162201,525.357727 244.842178,525.530396 
	C239.014954,525.606018 232.587311,525.494751 228.597031,532.440613 
M219.764816,435.507019 
	C215.951050,411.033447 212.168259,386.555023 208.313690,362.087891 
	C205.235870,342.551178 202.070572,323.028259 198.944397,303.499176 
	C198.891739,303.170258 198.858414,302.837463 198.790054,302.511932 
	C197.734329,297.484528 194.333450,294.683044 190.250137,295.472137 
	C186.100540,296.274048 183.879349,300.048828 184.679764,305.142700 
	C188.187134,327.463623 191.765167,349.773499 195.241531,372.099213 
	C199.639130,400.341248 203.929504,428.600006 208.347275,456.838867 
	C209.213608,462.376526 212.175385,465.107086 216.289703,464.717407 
	C220.427231,464.325531 222.909012,461.020020 222.744858,455.593109 
	C222.548065,449.088318 221.070480,442.746429 219.764816,435.507019 
M707.797241,168.630447 
	C707.833618,167.631241 707.910828,166.631546 707.898315,165.632950 
	C707.869629,163.335114 708.371765,160.578552 704.836914,160.499832 
	C701.436340,160.424088 702.056519,163.266754 701.896057,165.237259 
	C701.248047,173.193909 700.674988,181.158310 700.207031,189.127640 
	C699.436279,202.253647 698.820129,215.388748 698.047302,228.514618 
	C696.090698,261.746399 694.087769,294.975494 692.093933,328.205109 
	C691.206848,342.989227 690.262329,357.770020 689.431396,372.557220 
	C689.294800,374.986633 688.761475,377.514313 689.968262,379.972046 
	C693.747986,380.694733 695.785461,379.447357 695.694214,375.387207 
	C695.653015,373.557861 695.742065,371.720245 695.869446,369.893188 
	C697.454529,347.157715 699.168823,324.430573 700.621582,301.686707 
	C701.841553,282.586548 702.783325,263.468384 703.809998,244.356155 
	C705.148682,219.435165 706.449463,194.512161 707.797241,168.630447 
M418.614746,444.148926 
	C407.473724,444.003723 405.837982,442.410950 405.700806,431.573151 
	C405.692383,430.907928 405.652863,430.240753 405.688782,429.577759 
	C405.837067,426.841949 404.313385,425.931183 401.927063,426.420685 
	C392.785828,428.295746 383.491089,428.803497 374.245544,429.791779 
	C369.561401,430.292480 368.061096,434.401215 371.111267,437.984985 
	C373.405243,440.680359 374.617035,443.571930 374.377167,447.084198 
	C374.232513,449.202148 374.868744,450.502930 377.314514,450.748474 
	C393.011353,452.324524 408.696747,454.014038 424.390625,455.620544 
	C426.048950,455.790253 427.708771,455.779175 428.482300,453.698517 
	C430.665497,447.826172 428.217621,444.138916 422.048065,444.136963 
	C421.216461,444.136688 420.384857,444.144562 418.614746,444.148926 
M688.768066,201.062805 
	C687.612122,220.312134 686.443726,239.560730 685.304138,258.811035 
	C684.370605,274.580109 683.483643,290.351959 682.552734,306.121185 
	C681.837341,318.239105 681.083374,330.354767 680.352051,342.471741 
	C680.213013,344.776031 680.412476,347.055725 683.310730,347.335175 
	C686.711365,347.663086 685.725952,344.808197 685.888733,343.102173 
	C688.843262,312.133392 689.441467,281.016876 691.674438,250.000534 
	C692.796814,234.410339 693.614624,218.797974 694.530396,203.193283 
	C694.992798,195.314209 695.366394,187.429916 695.797791,179.210327 
	C691.026306,180.691254 689.409851,183.596954 689.325195,187.661346 
	C689.238525,191.820389 689.056213,195.977463 688.768066,201.062805 
M363.869110,278.532990 
	C367.479065,276.562469 367.765411,272.269287 370.173187,269.498749 
	C373.015503,266.228241 372.002869,263.844513 369.359894,260.974060 
	C359.458527,250.220367 349.790497,239.252182 339.977509,228.416458 
	C338.454010,226.734222 336.806488,223.436890 334.200684,226.749756 
	C332.166138,229.336273 327.436554,231.405930 331.430695,236.173599 
	C342.744080,249.677902 353.041809,263.967743 363.869110,278.532990 
M402.949921,341.434509 
	C397.324982,330.767853 391.700073,320.101227 385.844757,308.997742 
	C386.510437,327.587708 384.885956,345.580963 383.065826,364.671631 
	C391.579285,358.605194 398.946625,353.355438 406.488708,347.981171 
	C405.329987,345.838287 404.312286,343.956207 402.949921,341.434509 
M334.265839,370.661835 
	C344.401062,367.052612 354.738831,364.140411 365.252319,362.150543 
	C364.506683,354.549072 363.480103,352.748993 359.979675,353.548279 
	C343.595184,357.289215 327.541138,362.157379 311.812256,368.097961 
	C309.639099,368.918701 308.893372,370.234344 309.714630,372.312286 
	C310.597992,374.547272 310.369263,377.280945 312.487183,378.991425 
	C319.578918,376.260345 326.547882,373.576569 334.265839,370.661835 
M712.322571,413.134064 
	C697.029236,414.050446 681.735901,414.966797 665.655945,415.930298 
	C666.758789,417.114502 666.962708,417.525696 667.167664,417.526215 
	C693.966614,417.595947 720.765625,417.639740 747.564636,417.664185 
	C748.896606,417.665405 750.370789,417.644989 750.624451,415.841888 
	C750.864929,414.132111 749.986084,413.013000 748.508118,412.259491 
	C746.808289,411.392853 744.978088,411.290070 743.146240,411.388580 
	C733.184265,411.924225 723.224548,412.502197 712.322571,413.134064 
M559.471680,417.688538 
	C580.296326,416.431061 601.120911,415.173553 622.045349,413.910034 
	C621.833313,409.135071 619.156250,409.270996 616.376099,409.583496 
	C590.278503,412.516754 564.079773,414.260223 537.902405,416.254272 
	C530.333069,416.830872 522.762939,417.396423 518.854858,417.691010 
	C529.653076,417.691010 544.066467,417.691010 559.471680,417.688538 
M725.774414,337.632599 
	C722.138794,327.526917 718.506531,317.419830 713.616577,307.394043 
	C712.807007,309.461487 713.588379,310.777344 714.165161,312.142365 
	C721.294312,329.014130 727.546875,346.203674 731.558899,364.093811 
	C734.618286,377.736084 739.836548,391.165436 736.671387,405.579834 
	C743.602661,406.440186 744.020630,406.111603 742.861633,399.879944 
	C738.961853,378.912323 733.113953,358.471771 725.774414,337.632599 
M461.030884,414.725525 
	C455.894897,415.741058 450.758942,416.756561 445.192902,417.857117 
	C445.945831,418.255707 446.202240,418.506287 446.466492,418.514923 
	C461.232941,418.995728 475.993195,417.820190 490.771759,418.420135 
	C494.756378,418.581879 499.385529,420.163788 502.749359,416.880005 
	C505.119904,414.565826 507.718048,413.753387 510.734222,413.423737 
	C513.954407,413.071747 517.173828,412.713593 521.470093,412.239349 
	C515.034851,409.003235 510.027374,407.415100 503.708435,410.542419 
	C494.608429,415.046112 484.847473,418.776398 474.437195,415.451385 
	C470.141907,414.079498 466.140045,413.530029 461.030884,414.725525 
M411.295227,356.061218 
	C409.830444,352.368134 407.772522,351.786041 404.462433,354.263031 
	C398.331085,358.851196 392.056946,363.256256 385.728363,367.570404 
	C381.593445,370.389099 380.533508,374.033508 381.834686,379.304504 
	C391.828461,372.201904 401.427612,365.398102 410.978943,358.527771 
	C411.382385,358.237610 411.341492,357.329651 411.295227,356.061218 
M685.664856,356.866028 
	C685.792969,350.099457 679.718750,352.539490 676.713074,349.986908 
	C674.463745,357.810730 675.513062,365.184631 674.764282,372.413879 
	C674.340088,376.509064 678.817505,376.761993 681.646606,377.395813 
	C685.007874,378.148865 684.566711,375.152618 684.706726,373.098419 
	C685.055847,367.978302 685.346313,362.854187 685.664856,356.866028 
M216.634995,484.724426 
	C216.012436,481.458740 215.281189,478.208862 214.801804,474.922302 
	C214.420105,472.305450 212.955933,471.844849 210.130096,472.128876 
	C213.734924,490.432648 215.239807,508.846832 223.256241,526.017212 
	C226.343445,522.921936 226.536270,522.838989 225.655991,520.793091 
	C220.806625,509.522430 218.825851,497.539673 216.634995,484.724426 
M378.255127,303.504089 
	C378.582886,320.296387 376.978241,337.017883 376.108276,354.054504 
	C381.978943,331.712524 379.662598,309.309326 379.242889,286.982147 
	C377.656921,292.076996 378.518036,297.329071 378.255127,303.504089 
M685.584595,197.129929 
	C685.621033,196.131104 685.751709,195.125381 685.679077,194.134567 
	C685.076782,185.922012 686.297180,178.625183 694.292908,173.952393 
	C697.505310,172.075043 696.886963,168.640991 696.376099,164.914566 
	C692.493164,168.169037 687.212036,169.995178 686.544739,174.828079 
	C684.824219,187.287750 684.172852,199.879822 684.388062,212.480576 
	C684.880066,207.679489 684.520081,202.827530 685.584595,197.129929 
M524.483887,325.967712 
	C522.827637,326.581512 521.369751,327.563416 521.562683,329.485687 
	C521.771606,331.567719 523.448975,332.470947 525.349426,332.849091 
	C527.446106,333.266235 529.545837,333.773926 531.667480,333.933594 
	C534.369690,334.136963 536.191223,332.697876 536.463562,330.013733 
	C536.732056,327.367584 534.484009,326.793579 532.540222,326.460358 
	C530.118713,326.045227 527.638916,325.969543 524.483887,325.967712 
M539.453369,320.211914 
	C540.678040,318.630280 541.376038,316.780151 539.574097,315.406860 
	C537.129578,313.543793 534.208252,313.005737 531.173401,313.985870 
	C529.211365,314.619598 528.199097,316.030396 528.293518,318.082397 
	C528.391846,320.217773 529.703064,321.394989 531.738342,321.605865 
	C534.167908,321.857666 536.677673,322.388763 539.453369,320.211914 
M547.120728,270.592224 
	C539.693359,284.497375 532.265991,298.402527 524.838623,312.307648 
	C533.517151,298.860107 541.054443,284.801239 548.117065,270.484070 
	C547.880981,270.388153 547.644958,270.292236 547.120728,270.592224 
M541.090027,306.479309 
	C541.753418,305.743835 542.520569,305.076355 543.057129,304.257782 
	C543.991882,302.831696 544.868225,301.185974 542.923279,299.949799 
	C540.794983,298.597076 539.426086,300.016022 538.619080,301.778992 
	C537.706421,303.773010 536.364258,305.801025 537.289673,308.099060 
	C538.974548,308.643646 539.672668,307.506989 541.090027,306.479309 
M677.974365,321.736267 
	C678.834229,316.022583 678.918579,310.290466 678.554443,304.547821 
	C677.932190,314.226410 676.680298,323.882935 677.911377,333.608948 
	C677.911377,329.965546 677.911377,326.322113 677.974365,321.736267 
M680.761292,275.332977 
	C680.903931,266.991760 682.483582,258.696228 681.511169,250.319183 
	C681.572815,260.772919 679.542908,271.153198 680.746277,281.638885 
	C680.746277,279.834808 680.746277,278.030701 680.761292,275.332977 
M510.139435,340.586151 
	C510.235779,340.703369 510.317963,340.896637 510.432129,340.917877 
	C510.564728,340.942535 510.819244,340.853455 510.860260,340.750061 
	C512.468628,336.696014 515.880310,333.420654 515.909302,328.674744 
	C514.015015,332.489227 512.120728,336.303711 510.139435,340.586151 
z"/>
<path fill="#000000" opacity="1.000000" stroke="none" 
	d="
M254.571533,1.000000 
	C255.138336,13.319346 255.324982,25.638378 255.405334,37.958103 
	C255.594315,66.931580 256.380463,95.920349 255.712616,124.874962 
	C255.017395,155.016678 256.840363,185.137878 255.525757,215.273193 
	C254.953186,228.398193 255.236923,241.568848 255.428497,254.714447 
	C255.497055,259.417328 253.904694,261.295288 249.097061,261.278412 
	C203.113297,261.116882 157.129059,261.091705 111.144958,261.024750 
	C110.478775,261.023804 109.811142,261.011353 109.146751,260.966370 
	C107.196632,260.834229 105.481346,260.510529 105.549805,257.894806 
	C105.611450,255.539902 106.815132,254.730270 109.013672,254.661880 
	C114.503838,254.491119 119.990448,254.016891 125.478897,254.010223 
	C164.298965,253.963043 203.119141,254.011948 241.939270,254.007263 
	C249.299301,254.006378 249.292221,253.627853 249.227631,246.350250 
	C248.979294,218.361969 248.874863,190.371719 248.865570,162.382156 
	C248.847809,108.900475 248.931961,55.418762 248.986908,1.468531 
	C250.714355,1.000000 252.428711,1.000000 254.571533,1.000000 
z"/>
<path fill="#000000" opacity="1.000000" stroke="none" 
	d="
M755.955444,66.056000 
	C768.513245,45.898590 786.069702,33.363014 809.034851,28.817829 
	C841.744324,22.344078 875.822632,38.741970 892.105835,68.512810 
	C908.487793,98.464340 903.396667,137.404892 879.921692,161.704636 
	C843.039551,199.882584 778.200256,190.456528 753.909058,143.276520 
	C740.574768,117.377800 741.955444,91.686325 755.955444,66.056000 
M841.807251,35.771950 
	C837.484314,34.507801 833.104309,33.542229 828.592407,33.289276 
	C781.892456,30.671133 745.243652,70.403313 751.420044,116.952095 
	C757.778381,164.871872 810.568054,193.551605 854.196716,172.789032 
	C884.450317,158.391541 901.337158,125.687866 894.487366,92.453598 
	C888.546021,63.626759 870.955078,44.643021 841.807251,35.771950 
z"/>
<path fill="#000000" opacity="1.000000" stroke="none" 
	d="
M142.959427,121.199020 
	C143.306198,116.616829 143.635178,112.510155 143.985809,108.133232 
	C147.925903,112.390427 149.050507,226.200806 145.513657,239.932495 
	C143.112457,239.082489 143.789566,237.011673 143.743835,235.420731 
	C143.160873,215.138519 142.348953,194.856888 142.187836,174.570374 
	C142.047806,156.941544 142.661209,139.306717 142.959427,121.199020 
z"/>
<path fill="#000000" opacity="1.000000" stroke="none" 
	d="
M146.045074,89.934570 
	C175.856354,89.943817 205.195389,88.994141 234.478516,90.665230 
	C234.472321,91.493744 234.466110,92.322258 234.459900,93.150772 
	C194.016098,94.797157 153.569550,95.793884 113.109612,93.630890 
	C113.081421,92.845078 113.053223,92.059265 113.025024,91.273453 
	C123.867447,90.828941 134.709854,90.384438 146.045074,89.934570 
z"/>
<path fill="#000000" opacity="1.000000" stroke="none" 
	d="
M342.815643,438.589355 
	C348.096741,437.847565 352.975403,436.807800 357.670868,440.251831 
	C340.041504,444.247467 322.675171,448.899780 305.308105,453.806335 
	C316.454224,445.713013 328.995483,441.156708 342.815643,438.589355 
z"/>
<path fill="#000000" opacity="1.000000" stroke="none" 
	d="
M429.690857,177.154922 
	C433.098083,176.536011 436.086700,176.436096 438.881226,177.854172 
	C440.317596,178.583084 442.199005,179.306305 441.623779,181.427322 
	C441.162720,183.127319 439.651031,184.613541 437.958435,184.277100 
	C432.145569,183.121780 426.310486,183.335785 419.722107,184.282211 
	C421.936798,179.233246 425.798004,178.518295 429.690857,177.154922 
z"/>
<path fill="#000000" opacity="1.000000" stroke="none" 
	d="
M427.944916,190.275436 
	C429.280731,188.850494 430.533997,187.937424 432.045013,189.135284 
	C433.231567,190.075943 433.123718,191.471008 432.688324,192.797012 
	C431.822021,195.435532 431.417114,198.375824 428.687836,199.921051 
	C427.681274,200.490921 426.562408,199.965759 426.188263,199.001099 
	C424.998566,195.933884 426.075226,193.179733 427.944916,190.275436 
z"/>
<path fill="#000000" opacity="1.000000" stroke="none" 
	d="
M374.862152,179.043289 
	C376.599121,176.407959 378.170654,177.835388 379.578888,179.218567 
	C382.761658,182.344742 382.884552,187.506378 379.794556,191.828781 
	C377.623413,190.225967 377.626343,187.914093 377.754456,185.692993 
	C377.907654,183.036041 377.350098,180.817886 374.862152,179.043289 
z"/>
<path fill="#000000" opacity="1.000000" stroke="none" 
	d="
M843.111267,174.367767 
	C801.875183,185.583847 762.565613,161.549194 754.225891,120.357582 
	C743.744568,68.588066 794.136108,22.470678 843.561462,38.599411 
	C874.816223,48.798622 895.267517,76.867836 893.945251,108.271446 
	C892.650269,139.027435 874.300842,165.111069 843.111267,174.367767 
M761.725525,81.247932 
	C749.549500,115.763672 761.811218,149.834946 792.842285,165.836075 
	C814.975464,177.249069 837.562256,176.539398 858.570251,163.420471 
	C884.188721,147.422424 894.740784,118.992592 887.656494,89.627647 
	C878.743896,52.684345 838.424377,30.514471 802.646484,42.946003 
	C783.652161,49.545822 770.386047,62.407310 761.725525,81.247932 
z"/>
<path fill="#000000" opacity="1.000000" stroke="none" 
	d="
M850.934814,77.734116 
	C852.979675,76.856087 854.654297,76.785522 855.477722,78.753120 
	C856.242554,80.580597 855.018433,81.951164 853.788391,83.112518 
	C847.492188,89.057381 841.186768,94.992805 834.835999,100.879204 
	C832.712402,102.847511 831.117065,104.877190 830.745605,107.996704 
	C830.340088,111.401436 828.142212,113.703522 824.547363,114.253578 
	C821.581665,114.707367 819.317444,113.526505 817.787659,111.018394 
	C815.900879,107.925011 816.224487,104.763626 818.629944,102.273712 
	C820.615112,100.218758 820.863831,98.028763 820.829163,95.459511 
	C820.712219,86.797829 820.641968,78.134094 820.705017,69.472244 
	C820.724304,66.820030 819.775208,62.763123 823.769348,62.735775 
	C828.055847,62.706421 827.166382,66.943199 827.205566,69.733627 
	C827.338440,79.203285 827.256409,88.675972 827.256409,99.206367 
	C835.512817,91.674332 843.062622,84.786903 850.934814,77.734116 
M825.253174,105.452629 
	C823.622864,103.936546 822.247864,104.219704 821.448792,106.226906 
	C820.894226,107.619728 821.436035,109.105766 822.905518,109.380760 
	C825.467834,109.860268 825.976624,108.210213 825.253174,105.452629 
z"/>
<path fill="#000000" opacity="1.000000" stroke="none" 
	d="
M769.143677,139.670715 
	C768.572632,136.446884 769.913757,133.756012 769.308411,130.664948 
	C768.731628,127.719727 771.592163,125.990662 774.591125,126.053406 
	C777.601318,126.116402 779.765320,127.852524 779.881897,130.945404 
	C779.962280,133.077515 780.007263,135.097778 780.524414,137.222168 
	C781.073792,139.478821 779.813660,141.393036 777.544312,142.385696 
	C774.144714,143.872742 771.398865,143.087585 769.143677,139.670715 
z"/>
<path fill="#000000" opacity="1.000000" stroke="none" 
	d="
M821.362427,155.191162 
	C824.093445,154.188797 826.626221,152.677872 828.423645,155.875778 
	C827.466492,158.224564 825.092529,157.577545 823.750305,158.735046 
	C823.827148,158.992722 823.888611,159.469482 823.985718,159.476898 
	C827.979736,159.781082 830.271118,161.834564 829.763855,165.907394 
	C829.371643,169.056580 827.164124,171.085922 823.936768,170.963501 
	C819.982788,170.813538 818.120361,168.135010 817.783203,164.400024 
	C817.470276,160.934097 818.275635,157.796890 821.362427,155.191162 
z"/>
<path fill="#000000" opacity="1.000000" stroke="none" 
	d="
M764.231689,111.401184 
	C766.205566,110.353279 764.704102,110.474449 764.095520,110.208046 
	C763.497864,109.946457 762.865356,109.675583 762.382996,109.254372 
	C759.626648,106.847107 758.672485,104.069260 761.292847,101.031975 
	C763.781128,98.147636 766.802917,97.971001 769.640381,100.414352 
	C772.849731,103.177902 772.899414,106.797737 771.437012,110.453522 
	C770.143372,113.687347 767.690918,115.466629 764.088623,115.311172 
	C762.748901,115.253342 761.174927,115.138779 761.110535,113.383339 
	C761.042419,111.527115 762.657471,111.561111 764.231689,111.401184 
z"/>
<path fill="#000000" opacity="1.000000" stroke="none" 
	d="
M778.203247,86.896805 
	C775.470764,84.289093 775.480225,81.305977 775.657715,78.276276 
	C775.868530,74.678185 777.530701,72.202209 781.271179,71.832687 
	C785.173462,71.447182 786.997192,74.031517 787.819092,77.344345 
	C788.649353,80.690643 788.499329,84.053017 785.797424,86.605232 
	C783.633606,88.649170 781.084900,88.863235 778.203247,86.896805 
M783.668274,79.653221 
	C783.536743,78.007782 783.579956,76.228554 780.904785,76.271591 
	C779.799011,78.933220 779.452148,81.447739 781.392090,83.876450 
	C783.657043,83.419769 783.589722,81.841072 783.668274,79.653221 
z"/>
<path fill="#000000" opacity="1.000000" stroke="none" 
	d="
M868.350220,130.423309 
	C870.063721,128.494873 870.933533,125.505806 873.849976,126.507469 
	C876.631409,127.462753 876.105530,130.378723 876.028870,132.580582 
	C875.949280,134.864594 877.990417,137.006149 876.407410,139.322784 
	C875.764038,140.264328 874.778625,142.085983 874.488037,141.983139 
	C871.426758,140.899994 868.196350,139.904068 865.586731,138.068069 
	C863.732117,136.763290 865.656128,134.767380 866.486572,133.221878 
	C866.956909,132.346436 867.578674,131.552322 868.350220,130.423309 
z"/>
<path fill="#000000" opacity="1.000000" stroke="none" 
	d="
M854.305786,153.035400 
	C858.001160,155.757309 858.095581,158.716995 855.303894,161.634460 
	C852.837036,164.212341 849.004517,163.656540 846.668457,160.658127 
	C847.136841,159.177917 848.347534,159.285965 849.504150,159.407700 
	C850.757812,159.539658 851.789001,159.346359 852.560242,157.538834 
	C848.639709,156.296509 845.491516,154.355362 846.912537,149.390198 
	C847.480103,147.407303 848.689148,146.561035 850.498901,146.770065 
	C852.593079,147.011917 855.647339,145.405685 856.309204,149.054489 
	C855.296631,150.843964 853.410767,150.004791 852.243958,150.839401 
	C851.931824,152.391113 853.306030,152.321152 854.305786,153.035400 
z"/>
<path fill="#000000" opacity="1.000000" stroke="none" 
	d="
M869.074951,80.234543 
	C870.532410,78.671906 872.177185,77.642227 872.259827,75.754257 
	C871.062622,73.325218 868.200073,75.211884 866.700378,72.925690 
	C868.097351,69.302849 871.039551,69.705986 873.794189,70.881996 
	C877.620361,72.515511 877.572021,75.658005 873.920959,81.836449 
	C874.357239,83.369476 876.706055,83.094269 876.877136,84.899078 
	C874.686340,87.253548 868.327515,88.291023 866.855164,86.331757 
	C864.828918,83.635399 867.371765,82.179092 869.074951,80.234543 
z"/>
<path fill="#000000" opacity="1.000000" stroke="none" 
	d="
M882.320068,99.231125 
	C884.875977,101.208008 887.101257,109.736259 885.890625,112.208633 
	C884.508301,115.031601 881.847351,115.348061 879.105896,115.217934 
	C877.176025,115.126343 875.467712,114.638321 875.485474,112.221237 
	C876.761536,109.771996 879.410706,112.354027 880.934326,110.466370 
	C881.591125,108.293968 878.367676,108.793259 878.283691,107.057800 
	C878.141174,105.260582 880.665588,105.330238 880.699219,103.491928 
	C880.354919,103.285820 879.973450,102.877457 879.560913,102.843231 
	C878.151245,102.726280 876.159668,103.342201 876.177612,101.116386 
	C876.192017,99.318336 877.971619,98.945580 879.502014,98.841644 
	C880.309570,98.786797 881.134766,98.992035 882.320068,99.231125 
z"/>
<path fill="#000000" opacity="1.000000" stroke="none" 
	d="
M831.414551,51.946732 
	C830.594543,53.004436 829.976501,53.783390 829.354736,54.567009 
	C829.865601,56.516155 833.347778,55.151176 832.834351,58.290173 
	C830.238953,60.296646 826.973511,59.554600 824.071228,59.017609 
	C821.357544,58.515511 822.308899,56.430328 823.389343,54.739876 
	C824.792236,52.544884 827.428162,51.209408 827.923645,48.406338 
	C826.903381,46.431248 824.146606,48.025055 823.112488,45.544983 
	C824.288269,42.214664 827.062073,42.167427 829.721741,43.468582 
	C833.389282,45.262806 834.189941,48.192780 831.414551,51.946732 
z"/>
<path fill="#000000" opacity="1.000000" stroke="none" 
	d="
M794.661682,153.976074 
	C796.752869,148.837296 790.894775,151.456711 790.258850,148.218445 
	C792.966980,145.551575 796.784302,146.234085 799.723877,147.347565 
	C802.742371,148.490875 800.531189,151.350586 799.769775,153.329819 
	C798.885193,155.629181 797.701172,157.824890 796.511780,159.991272 
	C795.762146,161.356583 795.115967,163.528809 793.027466,162.629013 
	C790.855408,161.693268 792.117981,159.833420 792.701965,158.366959 
	C793.250488,156.989609 793.929810,155.664337 794.661682,153.976074 
z"/>
<path fill="#000000" opacity="1.000000" stroke="none" 
	d="
M816.498596,57.846146 
	C815.191101,53.917267 817.589600,49.293934 812.973633,47.013950 
	C813.764587,43.901146 815.927124,42.915390 818.301941,43.448402 
	C820.779114,44.004417 820.245789,46.535793 820.339783,48.459118 
	C820.468445,51.092033 820.791138,53.745892 820.585815,56.355770 
	C820.396667,58.760342 819.558105,60.985622 816.498596,57.846146 
z"/>
<path fill="#000000" opacity="1.000000" stroke="none" 
	d="
M854.419739,57.692932 
	C854.429504,60.261833 854.495361,62.399300 854.407043,64.530380 
	C854.356567,65.747536 853.837463,66.856247 852.413757,66.938126 
	C850.723328,67.035332 850.185364,65.818466 849.967468,64.420052 
	C849.458313,61.152031 850.559387,57.708309 847.555359,54.747982 
	C846.132812,53.346245 848.616333,52.117683 850.094360,51.475025 
	C851.792664,50.736599 853.472778,50.698677 854.053284,52.848866 
	C854.431335,54.248993 854.309204,55.784149 854.419739,57.692932 
z"/>
<path fill="#000000" opacity="1.000000" stroke="none" 
	d="
M767.219849,73.999603 
	C773.170593,71.075638 774.162598,71.632500 774.263062,77.701172 
	C774.306763,80.339760 774.264832,82.984787 774.121277,85.619232 
	C774.054871,86.837914 773.422180,87.856049 771.983521,87.880890 
	C771.066772,87.896721 770.123108,87.289505 770.186951,86.521027 
	C770.561523,82.013031 768.504883,78.197868 767.219849,73.999603 
z"/>
<path fill="#000000" opacity="1.000000" stroke="none" 
	d="
M803.291443,61.750439 
	C803.266235,63.035694 803.282288,63.871590 803.207458,64.699272 
	C803.078003,66.130981 802.628723,67.429962 800.876892,67.313469 
	C799.146484,67.198410 798.947876,65.793472 798.781860,64.414490 
	C798.371582,61.005783 800.400208,56.838219 795.308655,55.205154 
	C796.963257,52.301411 799.043396,51.307667 801.445007,52.052883 
	C803.610107,52.724689 803.173035,55.018082 803.261475,56.800884 
	C803.335571,58.296543 803.286316,59.798317 803.291443,61.750439 
z"/>
<path fill="#000000" opacity="1.000000" stroke="none" 
	d="
M793.987183,53.552002 
	C794.200745,57.101856 794.340088,60.230022 794.294006,63.355457 
	C794.271423,64.889069 794.735840,67.173676 792.385742,67.211548 
	C789.870300,67.252083 790.028015,64.894638 789.932312,63.134911 
	C789.768066,60.114368 790.633789,56.757462 786.505249,55.318546 
	C788.603088,52.136028 790.630859,50.526558 793.987183,53.552002 
z"/>
</svg>